<svg xmlns="http://www.w3.org/2000/svg" width="512" height="512" viewBox="0 0 512 512">
  <rect width="512" height="512" rx="80" fill="#10b981"/>
  <g transform="translate(256,256) scale(1.2)">
    <path d="M0-140 C60-140 100-80 100-20 C100 40 60 80 0 80 C-60 80 -100 40 -100-20 C-100-80 -60-140 0-140Z" fill="white" opacity="0.15"/>
    <path d="M0-100 Q30-100 45-60 Q50-30 30 0 Q50 20 40 50 Q20 70 0 60 Q-20 70 -40 50 Q-50 20 -30 0 Q-50-30 -45-60 Q-30-100 0-100Z" fill="white" opacity="0.9"/>
    <path d="M0-70 L0-10" stroke="#10b981" stroke-width="4" stroke-linecap="round"/>
    <path d="M0-10 Q-15 15 -25 40" stroke="#10b981" stroke-width="3" fill="none" stroke-linecap="round" opacity="0.7"/>
    <path d="M0-10 Q15 15 25 40" stroke="#10b981" stroke-width="3" fill="none" stroke-linecap="round" opacity="0.7"/>
    <path d="M-10-10 L-25 0" stroke="#10b981" stroke-width="2" fill="none" stroke-linecap="round" opacity="0.5"/>
    <path d="M10-10 L25 0" stroke="#10b981" stroke-width="2" fill="none" stroke-linecap="round" opacity="0.5"/>
  </g>
</svg>
